<svg version="1.1" id="Layer_1" xmlns="http://www.w3.org/2000/svg" xmlns:xlink="http://www.w3.org/1999/xlink" x="0px" y="0px"
	 width="100%" viewBox="0 0 105 154" enable-background="new 0 0 105 154" xml:space="preserve">
<path fill="#FFFFFF" opacity="1.000000" stroke="none" 
	d="
M45.000000,155.000000 
	C30.000000,155.000000 15.500000,155.000000 1.000000,155.000000 
	C1.000000,103.666664 1.000000,52.333332 1.000000,1.000000 
	C36.000000,1.000000 71.000000,1.000000 106.000000,1.000000 
	C106.000000,52.333332 106.000000,103.666664 106.000000,155.000000 
	C85.833336,155.000000 65.666664,155.000000 45.000000,155.000000 
M19.262545,20.791735 
	C18.764824,21.459822 18.211271,22.093737 17.778139,22.801359 
	C14.044801,28.900640 15.870637,36.425190 21.981895,40.209045 
	C27.648640,43.717674 35.212292,41.675327 38.846367,35.655277 
	C41.878311,30.632704 41.138638,24.656509 36.982517,20.596329 
	C32.194168,15.918511 26.217438,15.802702 19.262545,20.791735 
M38.628632,122.024612 
	C33.802673,115.455887 26.053375,114.146713 20.511415,118.963882 
	C14.689782,124.024139 14.256063,132.286224 19.539757,137.473465 
	C23.891764,141.746033 30.441332,142.216187 35.563244,138.623703 
	C40.423244,135.214920 41.744900,129.175903 38.628632,122.024612 
M84.880287,118.430840 
	C79.828667,114.890579 74.639854,115.337151 70.076859,118.900940 
	C66.425407,121.752800 64.378975,125.848595 65.525925,130.812180 
	C66.856720,136.571442 71.038940,140.412384 76.463539,140.956955 
	C81.796463,141.492294 86.694565,138.693878 89.046883,133.767731 
	C91.418762,128.800613 90.207901,123.805885 84.880287,118.430840 
M65.790405,32.525028 
	C68.893356,40.138065 74.584641,43.360535 81.279800,41.295303 
	C87.670250,39.324070 91.313301,33.004852 89.872841,26.389893 
	C88.620972,20.640987 81.740837,16.111845 75.759331,17.099077 
	C68.879349,18.234600 64.777328,24.124426 65.790405,32.525028 
M29.275723,66.921043 
	C21.227751,67.023819 16.411411,71.026291 15.975334,77.973930 
	C15.559590,84.597610 19.824961,90.321457 25.690298,91.010765 
	C33.462032,91.924133 39.283062,87.804222 40.618652,80.445023 
	C41.703484,74.467522 37.107563,68.558708 29.275723,66.921043 
M85.863335,88.491913 
	C86.914017,87.010788 88.206482,85.644257 88.972420,84.028183 
	C91.876549,77.900642 89.027679,70.476936 82.833817,67.638596 
	C76.976151,64.954315 69.540802,67.729477 66.705360,73.658363 
	C64.237000,78.819687 65.303833,84.186325 69.585114,88.144806 
	C73.714264,91.962608 79.404045,92.272865 85.863335,88.491913 
z"/>
<path fill="#BABAB8" opacity="1.000000" stroke="none" 
	d="
M19.532299,20.527580 
	C26.217438,15.802702 32.194168,15.918511 36.982517,20.596329 
	C41.138638,24.656509 41.878311,30.632704 38.846367,35.655277 
	C35.212292,41.675327 27.648640,43.717674 21.981895,40.209045 
	C15.870637,36.425190 14.044801,28.900640 17.778139,22.801359 
	C18.211271,22.093737 18.764824,21.459822 19.532299,20.527580 
z"/>
<path fill="#BBBAB8" opacity="1.000000" stroke="none" 
	d="
M38.843330,122.339836 
	C41.744900,129.175903 40.423244,135.214920 35.563244,138.623703 
	C30.441332,142.216187 23.891764,141.746033 19.539757,137.473465 
	C14.256063,132.286224 14.689782,124.024139 20.511415,118.963882 
	C26.053375,114.146713 33.802673,115.455887 38.843330,122.339836 
z"/>
<path fill="#BBBAB8" opacity="1.000000" stroke="none" 
	d="
M85.165344,118.681679 
	C90.207901,123.805885 91.418762,128.800613 89.046883,133.767731 
	C86.694565,138.693878 81.796463,141.492294 76.463539,140.956955 
	C71.038940,140.412384 66.856720,136.571442 65.525925,130.812180 
	C64.378975,125.848595 66.425407,121.752800 70.076859,118.900940 
	C74.639854,115.337151 79.828667,114.890579 85.165344,118.681679 
z"/>
<path fill="#BAB9B7" opacity="1.000000" stroke="none" 
	d="
M65.657539,32.159702 
	C64.777328,24.124426 68.879349,18.234600 75.759331,17.099077 
	C81.740837,16.111845 88.620972,20.640987 89.872841,26.389893 
	C91.313301,33.004852 87.670250,39.324070 81.279800,41.295303 
	C74.584641,43.360535 68.893356,40.138065 65.657539,32.159702 
z"/>
<path fill="#BAB9B7" opacity="1.000000" stroke="none" 
	d="
M29.696117,66.931915 
	C37.107563,68.558708 41.703484,74.467522 40.618652,80.445023 
	C39.283062,87.804222 33.462032,91.924133 25.690298,91.010765 
	C19.824961,90.321457 15.559590,84.597610 15.975334,77.973930 
	C16.411411,71.026291 21.227751,67.023819 29.696117,66.931915 
z"/>
<path fill="#BAB9B7" opacity="1.000000" stroke="none" 
	d="
M85.572586,88.746323 
	C79.404045,92.272865 73.714264,91.962608 69.585114,88.144806 
	C65.303833,84.186325 64.237000,78.819687 66.705360,73.658363 
	C69.540802,67.729477 76.976151,64.954315 82.833817,67.638596 
	C89.027679,70.476936 91.876549,77.900642 88.972420,84.028183 
	C88.206482,85.644257 86.914017,87.010788 85.572586,88.746323 
z"/>
</svg>